<?xml version="1.0" encoding="utf-8"?>
<!-- Generator: Adobe Illustrator 27.5.0, SVG Export Plug-In . SVG Version: 6.00 Build 0)  -->
<svg version="1.1" id="Layer_1" xmlns="http://www.w3.org/2000/svg" xmlns:xlink="http://www.w3.org/1999/xlink" x="0px" y="0px"
	 viewBox="0 0 512 512" style="enable-background:new 0 0 512 512;" xml:space="preserve">
<g>
	<path d="M368,79.5c8.84,0,16,7.16,16,16v224c0,8.84-7.16,16-16,16s-16-7.16-16-16v-224C352,86.66,359.16,79.5,368,79.5z M432,79.5
		c8.84,0,16,7.16,16,16v224c0,8.84-7.16,16-16,16s-16-7.16-16-16v-224C416,86.66,423.16,79.5,432,79.5z M112,335.5
		c-8.84,0-16,7.16-16,16s7.16,16,16,16h192c8.84,0,16-7.16,16-16s-7.16-16-16-16H112z M112,399.5c-8.84,0-16,7.16-16,16
		s7.16,16,16,16h192c8.84,0,16-7.16,16-16s-7.16-16-16-16H112z M160,111.5c-17.67,0-32,14.33-32,32h-16c-8.84,0-16,7.16-16,16
		s7.16,16,16,16h16v32h-16c-8.84,0-16,7.16-16,16s7.16,16,16,16h16c0,17.67,14.33,32,32,32v16c0,8.84,7.16,16,16,16s16-7.16,16-16
		v-16h32v16c0,8.84,7.16,16,16,16s16-7.16,16-16v-16c17.67,0,32-14.33,32-32h16c8.84,0,16-7.16,16-16s-7.16-16-16-16h-16v-32h16
		c8.84,0,16-7.16,16-16s-7.16-16-16-16h-16c0-17.67-14.33-32-32-32v-16c0-8.84-7.16-16-16-16s-16,7.16-16,16v16h-32v-16
		c0-8.84-7.16-16-16-16s-16,7.16-16,16V111.5z M160,143.5h96v96h-96V143.5z M368,367.5c-8.84,0-16,7.16-16,16v32
		c0,8.84,7.16,16,16,16h64c8.84,0,16-7.16,16-16v-32c0-8.84-7.16-16-16-16H368z"/>
	<path d="M32,79.5c0-35.35,28.65-64,64-64h352c35.35,0,64,28.65,64,64v352c0,35.35-28.65,64-64,64H96c-35.35,0-64-28.65-64-64v-64
		H16c-8.84,0-16-7.16-16-16v-32c0-8.84,7.16-16,16-16h16v-32H16c-8.84,0-16-7.16-16-16v-32c0-8.84,7.16-16,16-16h16v-32H16
		c-8.84,0-16-7.16-16-16v-64c0-8.84,7.16-16,16-16H32z M64,431.5c0,17.67,14.33,32,32,32h352c17.67,0,32-14.33,32-32v-352
		c0-17.67-14.33-32-32-32H96c-17.67,0-32,14.33-32,32V431.5z"/>
</g>
</svg>
